<mxfile host="65bd71144e">
    <diagram name="Page-1" id="FfChdXU08udidf43iM9x">
        <mxGraphModel dx="986" dy="419" grid="1" gridSize="10" guides="1" tooltips="1" connect="1" arrows="1" fold="1" page="1" pageScale="1" pageWidth="827" pageHeight="1169" math="0" shadow="0">
            <root>
                <mxCell id="0"/>
                <mxCell id="1" parent="0"/>
                <mxCell id="0lUVdutDb5STWCz8hCA1-1" style="rounded=0;orthogonalLoop=1;jettySize=auto;html=1;exitX=0.5;exitY=0;exitDx=0;exitDy=0;shape=link;" parent="1" source="0lUVdutDb5STWCz8hCA1-9" target="0lUVdutDb5STWCz8hCA1-39" edge="1">
                    <mxGeometry relative="1" as="geometry"/>
                </mxCell>
                <mxCell id="0lUVdutDb5STWCz8hCA1-2" value="1" style="edgeLabel;html=1;align=center;verticalAlign=middle;resizable=0;points=[];" parent="0lUVdutDb5STWCz8hCA1-1" connectable="0" vertex="1">
                    <mxGeometry x="0.563" y="3" relative="1" as="geometry">
                        <mxPoint x="13" y="-3" as="offset"/>
                    </mxGeometry>
                </mxCell>
                <mxCell id="0lUVdutDb5STWCz8hCA1-3" style="rounded=0;orthogonalLoop=1;jettySize=auto;html=1;exitX=0.5;exitY=1;exitDx=0;exitDy=0;entryX=0.5;entryY=0;entryDx=0;entryDy=0;endArrow=none;endFill=0;" parent="1" source="0lUVdutDb5STWCz8hCA1-9" target="0lUVdutDb5STWCz8hCA1-30" edge="1">
                    <mxGeometry relative="1" as="geometry"/>
                </mxCell>
                <mxCell id="0lUVdutDb5STWCz8hCA1-4" style="rounded=0;orthogonalLoop=1;jettySize=auto;html=1;exitX=0.5;exitY=1;exitDx=0;exitDy=0;endArrow=none;endFill=0;" parent="1" source="0lUVdutDb5STWCz8hCA1-9" target="0lUVdutDb5STWCz8hCA1-28" edge="1">
                    <mxGeometry relative="1" as="geometry"/>
                </mxCell>
                <mxCell id="0lUVdutDb5STWCz8hCA1-5" style="rounded=0;orthogonalLoop=1;jettySize=auto;html=1;exitX=0.5;exitY=1;exitDx=0;exitDy=0;entryX=0;entryY=0.5;entryDx=0;entryDy=0;endArrow=none;endFill=0;" parent="1" source="0lUVdutDb5STWCz8hCA1-9" target="0lUVdutDb5STWCz8hCA1-32" edge="1">
                    <mxGeometry relative="1" as="geometry"/>
                </mxCell>
                <mxCell id="0lUVdutDb5STWCz8hCA1-6" style="rounded=0;orthogonalLoop=1;jettySize=auto;html=1;exitX=0.5;exitY=1;exitDx=0;exitDy=0;entryX=1;entryY=0.5;entryDx=0;entryDy=0;endArrow=none;endFill=0;" parent="1" source="0lUVdutDb5STWCz8hCA1-9" target="0lUVdutDb5STWCz8hCA1-35" edge="1">
                    <mxGeometry relative="1" as="geometry"/>
                </mxCell>
                <mxCell id="0lUVdutDb5STWCz8hCA1-7" style="rounded=0;orthogonalLoop=1;jettySize=auto;html=1;exitX=0.5;exitY=1;exitDx=0;exitDy=0;endArrow=none;endFill=0;" parent="1" source="0lUVdutDb5STWCz8hCA1-9" target="0lUVdutDb5STWCz8hCA1-29" edge="1">
                    <mxGeometry relative="1" as="geometry"/>
                </mxCell>
                <mxCell id="0lUVdutDb5STWCz8hCA1-8" style="rounded=0;orthogonalLoop=1;jettySize=auto;html=1;exitX=0.5;exitY=1;exitDx=0;exitDy=0;entryX=0.5;entryY=0;entryDx=0;entryDy=0;endArrow=none;endFill=0;" parent="1" source="0lUVdutDb5STWCz8hCA1-9" target="0lUVdutDb5STWCz8hCA1-31" edge="1">
                    <mxGeometry relative="1" as="geometry"/>
                </mxCell>
                <mxCell id="0lUVdutDb5STWCz8hCA1-9" value="customer" style="whiteSpace=wrap;html=1;align=center;" parent="1" vertex="1">
                    <mxGeometry x="520" y="585" width="100" height="40" as="geometry"/>
                </mxCell>
                <mxCell id="0lUVdutDb5STWCz8hCA1-10" style="rounded=0;orthogonalLoop=1;jettySize=auto;html=1;exitX=0.5;exitY=0;exitDx=0;exitDy=0;entryX=0;entryY=0.5;entryDx=0;entryDy=0;endArrow=none;endFill=0;" parent="1" source="0lUVdutDb5STWCz8hCA1-20" target="0lUVdutDb5STWCz8hCA1-24" edge="1">
                    <mxGeometry relative="1" as="geometry"/>
                </mxCell>
                <mxCell id="0lUVdutDb5STWCz8hCA1-11" style="rounded=0;orthogonalLoop=1;jettySize=auto;html=1;exitX=0.5;exitY=0;exitDx=0;exitDy=0;entryX=0;entryY=0.5;entryDx=0;entryDy=0;endArrow=none;endFill=0;" parent="1" source="0lUVdutDb5STWCz8hCA1-20" target="0lUVdutDb5STWCz8hCA1-25" edge="1">
                    <mxGeometry relative="1" as="geometry"/>
                </mxCell>
                <mxCell id="0lUVdutDb5STWCz8hCA1-12" style="rounded=0;orthogonalLoop=1;jettySize=auto;html=1;exitX=0.5;exitY=0;exitDx=0;exitDy=0;entryX=0.5;entryY=1;entryDx=0;entryDy=0;endArrow=none;endFill=0;" parent="1" source="0lUVdutDb5STWCz8hCA1-20" target="0lUVdutDb5STWCz8hCA1-23" edge="1">
                    <mxGeometry relative="1" as="geometry"/>
                </mxCell>
                <mxCell id="0lUVdutDb5STWCz8hCA1-13" style="rounded=0;orthogonalLoop=1;jettySize=auto;html=1;exitX=0.5;exitY=0;exitDx=0;exitDy=0;entryX=1;entryY=0.5;entryDx=0;entryDy=0;endArrow=none;endFill=0;" parent="1" source="0lUVdutDb5STWCz8hCA1-20" target="0lUVdutDb5STWCz8hCA1-22" edge="1">
                    <mxGeometry relative="1" as="geometry"/>
                </mxCell>
                <mxCell id="0lUVdutDb5STWCz8hCA1-14" style="rounded=0;orthogonalLoop=1;jettySize=auto;html=1;exitX=0.5;exitY=0;exitDx=0;exitDy=0;entryX=0;entryY=0.5;entryDx=0;entryDy=0;endArrow=none;endFill=0;" parent="1" source="0lUVdutDb5STWCz8hCA1-20" target="0lUVdutDb5STWCz8hCA1-26" edge="1">
                    <mxGeometry relative="1" as="geometry"/>
                </mxCell>
                <mxCell id="0lUVdutDb5STWCz8hCA1-15" style="rounded=0;orthogonalLoop=1;jettySize=auto;html=1;exitX=0.5;exitY=0;exitDx=0;exitDy=0;entryX=0;entryY=0.5;entryDx=0;entryDy=0;endArrow=none;endFill=0;" parent="1" source="0lUVdutDb5STWCz8hCA1-20" target="0lUVdutDb5STWCz8hCA1-27" edge="1">
                    <mxGeometry relative="1" as="geometry"/>
                </mxCell>
                <mxCell id="0lUVdutDb5STWCz8hCA1-16" style="rounded=0;orthogonalLoop=1;jettySize=auto;html=1;exitX=0.5;exitY=0;exitDx=0;exitDy=0;entryX=1;entryY=0.5;entryDx=0;entryDy=0;endArrow=none;endFill=0;" parent="1" source="0lUVdutDb5STWCz8hCA1-20" target="0lUVdutDb5STWCz8hCA1-21" edge="1">
                    <mxGeometry relative="1" as="geometry"/>
                </mxCell>
                <mxCell id="0lUVdutDb5STWCz8hCA1-17" style="rounded=0;orthogonalLoop=1;jettySize=auto;html=1;exitX=1;exitY=0.5;exitDx=0;exitDy=0;entryX=0.5;entryY=0;entryDx=0;entryDy=0;shape=link;" parent="1" source="0lUVdutDb5STWCz8hCA1-20" target="0lUVdutDb5STWCz8hCA1-39" edge="1">
                    <mxGeometry relative="1" as="geometry"/>
                </mxCell>
                <mxCell id="0lUVdutDb5STWCz8hCA1-18" value="1" style="edgeLabel;html=1;align=center;verticalAlign=middle;resizable=0;points=[];" parent="0lUVdutDb5STWCz8hCA1-17" connectable="0" vertex="1">
                    <mxGeometry x="0.6037" relative="1" as="geometry">
                        <mxPoint x="10" y="2" as="offset"/>
                    </mxGeometry>
                </mxCell>
                <mxCell id="0lUVdutDb5STWCz8hCA1-19" style="rounded=0;orthogonalLoop=1;jettySize=auto;html=1;exitX=0.5;exitY=0;exitDx=0;exitDy=0;entryX=0;entryY=1;entryDx=0;entryDy=0;endArrow=none;endFill=0;" parent="1" source="0lUVdutDb5STWCz8hCA1-20" target="0lUVdutDb5STWCz8hCA1-59" edge="1">
                    <mxGeometry relative="1" as="geometry"/>
                </mxCell>
                <mxCell id="0lUVdutDb5STWCz8hCA1-20" value="car" style="whiteSpace=wrap;html=1;align=center;" parent="1" vertex="1">
                    <mxGeometry x="450" y="230" width="100" height="40" as="geometry"/>
                </mxCell>
                <mxCell id="0lUVdutDb5STWCz8hCA1-21" value="color" style="ellipse;whiteSpace=wrap;html=1;align=center;" parent="1" vertex="1">
                    <mxGeometry x="340" y="160" width="100" height="40" as="geometry"/>
                </mxCell>
                <mxCell id="0lUVdutDb5STWCz8hCA1-22" value="status" style="ellipse;whiteSpace=wrap;html=1;align=center;" parent="1" vertex="1">
                    <mxGeometry x="350" y="110" width="100" height="40" as="geometry"/>
                </mxCell>
                <mxCell id="0lUVdutDb5STWCz8hCA1-23" value="&lt;u&gt;plate id&lt;/u&gt;" style="ellipse;whiteSpace=wrap;html=1;align=center;" parent="1" vertex="1">
                    <mxGeometry x="440" y="60" width="100" height="40" as="geometry"/>
                </mxCell>
                <mxCell id="0lUVdutDb5STWCz8hCA1-24" value="year" style="ellipse;whiteSpace=wrap;html=1;align=center;" parent="1" vertex="1">
                    <mxGeometry x="670" y="100" width="100" height="40" as="geometry"/>
                </mxCell>
                <mxCell id="0lUVdutDb5STWCz8hCA1-25" value="model" style="ellipse;whiteSpace=wrap;html=1;align=center;" parent="1" vertex="1">
                    <mxGeometry x="680" y="50" width="100" height="40" as="geometry"/>
                </mxCell>
                <mxCell id="0lUVdutDb5STWCz8hCA1-26" value="mileage" style="ellipse;whiteSpace=wrap;html=1;align=center;" parent="1" vertex="1">
                    <mxGeometry x="630" y="190" width="100" height="40" as="geometry"/>
                </mxCell>
                <mxCell id="0lUVdutDb5STWCz8hCA1-27" value="price per day" style="ellipse;whiteSpace=wrap;html=1;align=center;" parent="1" vertex="1">
                    <mxGeometry x="680" y="150" width="100" height="40" as="geometry"/>
                </mxCell>
                <mxCell id="0lUVdutDb5STWCz8hCA1-28" value="password" style="ellipse;whiteSpace=wrap;html=1;align=center;" parent="1" vertex="1">
                    <mxGeometry x="690" y="635" width="100" height="40" as="geometry"/>
                </mxCell>
                <mxCell id="0lUVdutDb5STWCz8hCA1-29" value="&lt;u&gt;email&lt;/u&gt;" style="ellipse;whiteSpace=wrap;html=1;align=center;" parent="1" vertex="1">
                    <mxGeometry x="570" y="675" width="100" height="40" as="geometry"/>
                </mxCell>
                <mxCell id="0lUVdutDb5STWCz8hCA1-30" value="name" style="ellipse;whiteSpace=wrap;html=1;align=center;" parent="1" vertex="1">
                    <mxGeometry x="670" y="685" width="100" height="40" as="geometry"/>
                </mxCell>
                <mxCell id="0lUVdutDb5STWCz8hCA1-31" value="&lt;u&gt;id&lt;/u&gt;" style="ellipse;whiteSpace=wrap;html=1;align=center;" parent="1" vertex="1">
                    <mxGeometry x="470" y="685" width="100" height="40" as="geometry"/>
                </mxCell>
                <mxCell id="0lUVdutDb5STWCz8hCA1-32" value="phone number" style="ellipse;whiteSpace=wrap;html=1;align=center;" parent="1" vertex="1">
                    <mxGeometry x="680" y="585" width="100" height="40" as="geometry"/>
                </mxCell>
                <mxCell id="0lUVdutDb5STWCz8hCA1-33" style="rounded=0;orthogonalLoop=1;jettySize=auto;html=1;exitX=0;exitY=0.5;exitDx=0;exitDy=0;entryX=1;entryY=0.5;entryDx=0;entryDy=0;endArrow=none;endFill=0;" parent="1" source="0lUVdutDb5STWCz8hCA1-35" target="0lUVdutDb5STWCz8hCA1-51" edge="1">
                    <mxGeometry relative="1" as="geometry"/>
                </mxCell>
                <mxCell id="0lUVdutDb5STWCz8hCA1-34" style="rounded=0;orthogonalLoop=1;jettySize=auto;html=1;exitX=0;exitY=0.5;exitDx=0;exitDy=0;entryX=1;entryY=0.5;entryDx=0;entryDy=0;endArrow=none;endFill=0;" parent="1" source="0lUVdutDb5STWCz8hCA1-35" target="0lUVdutDb5STWCz8hCA1-50" edge="1">
                    <mxGeometry relative="1" as="geometry"/>
                </mxCell>
                <mxCell id="0lUVdutDb5STWCz8hCA1-35" value="address" style="ellipse;whiteSpace=wrap;html=1;align=center;" parent="1" vertex="1">
                    <mxGeometry x="400" y="645" width="100" height="40" as="geometry"/>
                </mxCell>
                <mxCell id="0lUVdutDb5STWCz8hCA1-36" style="rounded=0;orthogonalLoop=1;jettySize=auto;html=1;exitX=1;exitY=0.5;exitDx=0;exitDy=0;entryX=0;entryY=0.5;entryDx=0;entryDy=0;endArrow=none;endFill=0;" parent="1" source="0lUVdutDb5STWCz8hCA1-39" target="0lUVdutDb5STWCz8hCA1-40" edge="1">
                    <mxGeometry relative="1" as="geometry"/>
                </mxCell>
                <mxCell id="0lUVdutDb5STWCz8hCA1-37" style="rounded=0;orthogonalLoop=1;jettySize=auto;html=1;exitX=1;exitY=0.5;exitDx=0;exitDy=0;entryX=0;entryY=0.5;entryDx=0;entryDy=0;endArrow=none;endFill=0;" parent="1" source="0lUVdutDb5STWCz8hCA1-39" target="0lUVdutDb5STWCz8hCA1-41" edge="1">
                    <mxGeometry relative="1" as="geometry"/>
                </mxCell>
                <mxCell id="0lUVdutDb5STWCz8hCA1-38" style="rounded=0;orthogonalLoop=1;jettySize=auto;html=1;exitX=1;exitY=0.5;exitDx=0;exitDy=0;entryX=0;entryY=0.5;entryDx=0;entryDy=0;endArrow=none;endFill=0;" parent="1" source="0lUVdutDb5STWCz8hCA1-39" target="0lUVdutDb5STWCz8hCA1-49" edge="1">
                    <mxGeometry relative="1" as="geometry"/>
                </mxCell>
                <mxCell id="0lUVdutDb5STWCz8hCA1-39" value="Reserve" style="shape=rhombus;perimeter=rhombusPerimeter;whiteSpace=wrap;html=1;align=center;" parent="1" vertex="1">
                    <mxGeometry x="500" y="350" width="120" height="60" as="geometry"/>
                </mxCell>
                <mxCell id="0lUVdutDb5STWCz8hCA1-40" value="&lt;u&gt;start date&lt;/u&gt;" style="ellipse;whiteSpace=wrap;html=1;align=center;" parent="1" vertex="1">
                    <mxGeometry x="690" y="320" width="100" height="40" as="geometry"/>
                </mxCell>
                <mxCell id="0lUVdutDb5STWCz8hCA1-41" value="end date" style="ellipse;whiteSpace=wrap;html=1;align=center;" parent="1" vertex="1">
                    <mxGeometry x="700" y="370" width="100" height="40" as="geometry"/>
                </mxCell>
                <mxCell id="0lUVdutDb5STWCz8hCA1-42" style="rounded=0;orthogonalLoop=1;jettySize=auto;html=1;exitX=0.5;exitY=0;exitDx=0;exitDy=0;entryX=0;entryY=0.5;entryDx=0;entryDy=0;shape=link;" parent="1" source="0lUVdutDb5STWCz8hCA1-48" target="0lUVdutDb5STWCz8hCA1-58" edge="1">
                    <mxGeometry relative="1" as="geometry">
                        <mxPoint x="310" y="320" as="targetPoint"/>
                    </mxGeometry>
                </mxCell>
                <mxCell id="0lUVdutDb5STWCz8hCA1-43" value="1" style="edgeLabel;html=1;align=center;verticalAlign=middle;resizable=0;points=[];" parent="0lUVdutDb5STWCz8hCA1-42" connectable="0" vertex="1">
                    <mxGeometry x="0.359" y="1" relative="1" as="geometry">
                        <mxPoint x="30" y="-9" as="offset"/>
                    </mxGeometry>
                </mxCell>
                <mxCell id="0lUVdutDb5STWCz8hCA1-44" style="rounded=0;orthogonalLoop=1;jettySize=auto;html=1;exitX=0.5;exitY=1;exitDx=0;exitDy=0;entryX=0.5;entryY=0;entryDx=0;entryDy=0;endArrow=none;endFill=0;" parent="1" source="0lUVdutDb5STWCz8hCA1-48" target="0lUVdutDb5STWCz8hCA1-55" edge="1">
                    <mxGeometry relative="1" as="geometry"/>
                </mxCell>
                <mxCell id="0lUVdutDb5STWCz8hCA1-45" style="rounded=0;orthogonalLoop=1;jettySize=auto;html=1;exitX=0.5;exitY=1;exitDx=0;exitDy=0;entryX=0.5;entryY=0;entryDx=0;entryDy=0;endArrow=none;endFill=0;" parent="1" source="0lUVdutDb5STWCz8hCA1-48" target="0lUVdutDb5STWCz8hCA1-54" edge="1">
                    <mxGeometry relative="1" as="geometry"/>
                </mxCell>
                <mxCell id="0lUVdutDb5STWCz8hCA1-46" style="rounded=0;orthogonalLoop=1;jettySize=auto;html=1;exitX=0.5;exitY=1;exitDx=0;exitDy=0;entryX=0.5;entryY=0;entryDx=0;entryDy=0;endArrow=none;endFill=0;" parent="1" source="0lUVdutDb5STWCz8hCA1-48" target="0lUVdutDb5STWCz8hCA1-53" edge="1">
                    <mxGeometry relative="1" as="geometry"/>
                </mxCell>
                <mxCell id="0lUVdutDb5STWCz8hCA1-47" style="rounded=0;orthogonalLoop=1;jettySize=auto;html=1;exitX=0.5;exitY=1;exitDx=0;exitDy=0;entryX=0.5;entryY=0;entryDx=0;entryDy=0;endArrow=none;endFill=0;" parent="1" source="0lUVdutDb5STWCz8hCA1-48" target="0lUVdutDb5STWCz8hCA1-52" edge="1">
                    <mxGeometry relative="1" as="geometry"/>
                </mxCell>
                <mxCell id="0lUVdutDb5STWCz8hCA1-48" value="office" style="whiteSpace=wrap;html=1;align=center;" parent="1" vertex="1">
                    <mxGeometry x="110" y="380" width="100" height="40" as="geometry"/>
                </mxCell>
                <mxCell id="0lUVdutDb5STWCz8hCA1-49" value="total pirce" style="ellipse;whiteSpace=wrap;html=1;align=center;dashed=1;" parent="1" vertex="1">
                    <mxGeometry x="700" y="430" width="100" height="40" as="geometry"/>
                </mxCell>
                <mxCell id="0lUVdutDb5STWCz8hCA1-50" value="governorate" style="ellipse;whiteSpace=wrap;html=1;align=center;" parent="1" vertex="1">
                    <mxGeometry x="270" y="685" width="100" height="40" as="geometry"/>
                </mxCell>
                <mxCell id="0lUVdutDb5STWCz8hCA1-51" value="country" style="ellipse;whiteSpace=wrap;html=1;align=center;" parent="1" vertex="1">
                    <mxGeometry x="270" y="625" width="100" height="40" as="geometry"/>
                </mxCell>
                <mxCell id="0lUVdutDb5STWCz8hCA1-52" value="phone num" style="ellipse;whiteSpace=wrap;html=1;align=center;" parent="1" vertex="1">
                    <mxGeometry x="250" y="480" width="100" height="40" as="geometry"/>
                </mxCell>
                <mxCell id="0lUVdutDb5STWCz8hCA1-53" value="country" style="ellipse;whiteSpace=wrap;html=1;align=center;" parent="1" vertex="1">
                    <mxGeometry x="180" y="520" width="100" height="40" as="geometry"/>
                </mxCell>
                <mxCell id="0lUVdutDb5STWCz8hCA1-54" value="name" style="ellipse;whiteSpace=wrap;html=1;align=center;" parent="1" vertex="1">
                    <mxGeometry x="70" y="520" width="100" height="40" as="geometry"/>
                </mxCell>
                <mxCell id="0lUVdutDb5STWCz8hCA1-55" value="&lt;u&gt;id&lt;/u&gt;" style="ellipse;whiteSpace=wrap;html=1;align=center;" parent="1" vertex="1">
                    <mxGeometry x="20" y="470" width="100" height="40" as="geometry"/>
                </mxCell>
                <mxCell id="0lUVdutDb5STWCz8hCA1-56" style="rounded=0;orthogonalLoop=1;jettySize=auto;html=1;exitX=1;exitY=0.5;exitDx=0;exitDy=0;entryX=0;entryY=0.5;entryDx=0;entryDy=0;shape=link;" parent="1" source="0lUVdutDb5STWCz8hCA1-58" target="0lUVdutDb5STWCz8hCA1-20" edge="1">
                    <mxGeometry relative="1" as="geometry"/>
                </mxCell>
                <mxCell id="0lUVdutDb5STWCz8hCA1-57" value="N" style="edgeLabel;html=1;align=center;verticalAlign=middle;resizable=0;points=[];" parent="0lUVdutDb5STWCz8hCA1-56" connectable="0" vertex="1">
                    <mxGeometry x="-0.7041" relative="1" as="geometry">
                        <mxPoint x="-20" y="-6" as="offset"/>
                    </mxGeometry>
                </mxCell>
                <mxCell id="0lUVdutDb5STWCz8hCA1-58" value="exist in" style="shape=rhombus;perimeter=rhombusPerimeter;whiteSpace=wrap;html=1;align=center;" parent="1" vertex="1">
                    <mxGeometry x="160" y="220" width="120" height="60" as="geometry"/>
                </mxCell>
                <mxCell id="0lUVdutDb5STWCz8hCA1-59" value="image" style="ellipse;whiteSpace=wrap;html=1;align=center;" parent="1" vertex="1">
                    <mxGeometry x="540" y="40" width="100" height="40" as="geometry"/>
                </mxCell>
            </root>
        </mxGraphModel>
    </diagram>
</mxfile>